<?xml version="1.0" encoding="UTF-8" standalone="no"?>
<!DOCTYPE svg PUBLIC "-//W3C//DTD SVG 1.1//EN" "http://www.w3.org/Graphics/SVG/1.1/DTD/svg11.dtd">
<svg width="100%" height="100%" viewBox="0 0 2500 2500" version="1.1" xmlns="http://www.w3.org/2000/svg" xmlns:xlink="http://www.w3.org/1999/xlink" xml:space="preserve" xmlns:serif="http://www.serif.com/" style="fill-rule:evenodd;clip-rule:evenodd;stroke-linejoin:round;stroke-miterlimit:2;">
    <g transform="matrix(18.0223,0,0,18.0223,333.653,328.86)">
        <path d="M120.204,54.635L120.204,120.469L73.378,101.049L68.017,79.375C70.182,76.756 72.433,75.551 77.795,74.714C87.791,73.154 89.586,64.497 89.586,64.497C84.918,65.62 81.177,64.502 76.775,63.428C72.433,62.369 68.265,62.464 64.292,63.85C61.275,64.902 60.547,65.887 60.547,65.887L69.273,101.049L73.378,101.049L120.204,120.469L54.369,120.469L54.369,54.635L120.204,54.635ZM47.321,-18.247L47.321,47.587L17.255,47.587C17.424,39.61 20.197,31.007 25.545,25.774C30.823,29.835 34.239,35.123 35.583,41.809L43.288,41.809C41.357,32.462 36.137,26.494 29.888,22.421C37.363,16.478 38.816,10.248 38.816,6.95L35.83,6.95C35.377,10.049 33.707,14.764 25.545,19.548C16.896,14.528 15.573,10.07 15.261,6.95L12.276,6.95C12.276,10.501 13.768,16.89 21.223,22.422C13.535,30.107 10.375,39.633 9.685,47.587L-18.513,47.587L-18.513,-18.247L47.321,-18.247ZM29.434,12.039C29.434,9.911 27.693,8.187 25.545,8.187C23.397,8.187 21.657,9.911 21.657,12.039C21.657,14.166 23.397,15.89 25.545,15.89C27.693,15.89 29.434,14.166 29.434,12.039ZM54.369,-18.247L54.369,9.955C62.974,10.684 70.817,14.053 77.106,19.244L71.749,24.601C66.866,20.745 60.897,18.206 54.369,17.528L54.369,47.587L84.427,47.587C83.754,41.104 81.244,35.172 77.432,30.307L82.791,24.948C87.936,31.222 91.276,39.027 92.001,47.587L120.204,47.587L120.204,-18.247L54.369,-18.247ZM24.683,83.058L30.044,77.697C34.908,81.508 40.839,84.017 47.321,84.691L47.321,54.635L17.264,54.635C17.943,61.162 20.481,67.132 24.337,72.014L18.979,77.373C13.788,71.083 10.418,63.24 9.689,54.635L-18.513,54.635L-18.513,120.469L47.321,120.469L47.321,92.267C38.761,91.542 30.956,88.202 24.683,83.058Z" style="fill-rule:nonzero;"/>
    </g>
</svg>
