<?xml version="1.0" encoding="UTF-8" standalone="no"?>
<!DOCTYPE svg PUBLIC "-//W3C//DTD SVG 1.1//EN" "http://www.w3.org/Graphics/SVG/1.1/DTD/svg11.dtd">
<svg width="100%" height="100%" viewBox="0 0 2500 2500" version="1.1" xmlns="http://www.w3.org/2000/svg" xmlns:xlink="http://www.w3.org/1999/xlink" xml:space="preserve" xmlns:serif="http://www.serif.com/" style="fill-rule:evenodd;clip-rule:evenodd;stroke-linejoin:round;stroke-miterlimit:2;">
    <path d="M2500,2500L1656.1,2150L1582.11,2150L1424.85,1516.3C1424.85,1516.3 1437.97,1498.55 1492.34,1479.59C1563.95,1454.61 1639.06,1452.89 1717.32,1471.98C1796.65,1491.34 1864.07,1511.49 1948.2,1491.25C1948.2,1491.25 1915.85,1647.27 1735.7,1675.38C1639.06,1690.47 1598.5,1712.18 1559.48,1759.38L1656.1,2150L2500,2500L1313.51,2500L2500,2500ZM2500,1313.51L1313.51,1313.51L1313.51,2500L1186.49,2500L1186.49,1991.73C1032.22,1978.66 891.552,1918.47 778.498,1825.76L875.116,1729.14C962.777,1797.82 1069.67,1843.04 1186.49,1855.19L1186.49,1313.51L644.791,1313.51C657.028,1431.14 702.769,1538.74 772.263,1626.72L675.699,1723.3C582.145,1609.94 521.41,1468.59 508.272,1313.51L0,1313.51L0,1186.49L508.2,1186.49C520.635,1043.14 577.586,871.458 716.141,732.957C581.785,633.257 554.895,518.113 554.895,454.115L608.692,454.115C614.315,510.345 638.159,590.689 794.034,681.161C941.132,594.942 971.229,509.967 979.393,454.115L1033.21,454.115C1033.21,513.553 1007.02,625.832 872.305,732.939C984.926,806.344 1079,913.901 1113.8,1082.36L974.942,1082.36C950.72,961.858 889.155,866.556 794.034,793.368C697.65,887.678 647.674,1042.72 644.629,1186.49L1186.49,1186.49L1186.49,0L1313.51,0L1313.51,508.272C1468.59,521.411 1609.94,582.128 1723.28,675.682L1626.74,772.227C1538.73,702.733 1431.16,656.975 1313.51,644.755L1313.51,1186.49L1855.22,1186.49C1843.1,1069.65 1797.86,962.741 1729.16,875.063L1825.74,778.481C1918.46,891.553 1978.66,1032.22 1991.73,1186.49L2500,1186.49L2500,1313.51ZM864.122,545.831C864.122,507.479 832.746,476.409 794.034,476.409C755.322,476.409 723.963,507.479 723.963,545.831C723.963,584.164 755.322,615.235 794.034,615.235C832.746,615.235 864.122,584.164 864.122,545.831Z"/>
</svg>
