<?xml version="1.0" encoding="UTF-8" standalone="no"?>
<!DOCTYPE svg PUBLIC "-//W3C//DTD SVG 1.1//EN" "http://www.w3.org/Graphics/SVG/1.1/DTD/svg11.dtd">
<svg width="100%" height="100%" viewBox="0 0 2067 2500" version="1.1" xmlns="http://www.w3.org/2000/svg" xmlns:xlink="http://www.w3.org/1999/xlink" xml:space="preserve" xmlns:serif="http://www.serif.com/" style="fill-rule:evenodd;clip-rule:evenodd;stroke-linejoin:round;stroke-miterlimit:2;">
    <g transform="matrix(3.41314,0,0,3.41355,-1734.56,-1550.15)">
        <path d="M644.629,1186.49L508.2,1186.49C520.635,1043.14 577.586,871.458 716.141,732.957C581.785,633.257 554.895,518.113 554.895,454.115L608.692,454.115C614.315,510.345 638.159,590.689 794.034,681.161C941.132,594.942 971.229,509.967 979.393,454.115L1033.21,454.115C1033.21,513.553 1007.02,625.832 872.305,732.939C984.926,806.344 1079,913.901 1113.8,1082.36L974.942,1082.36C950.72,961.858 889.155,866.556 794.034,793.368C697.65,887.678 647.674,1042.72 644.629,1186.49ZM864.122,545.831C864.122,507.479 832.746,476.409 794.034,476.409C755.322,476.409 723.963,507.479 723.963,545.831C723.963,584.164 755.322,615.235 794.034,615.235C832.746,615.235 864.122,584.164 864.122,545.831Z"/>
    </g>
</svg>
